<svg width="21" height="19" viewBox="0 0 21 19" fill="none" xmlns="http://www.w3.org/2000/svg">
<path d="M0.370904 9.03315L5.20973 10.894L7.08266 17.1001C7.20251 17.4975 7.67423 17.6445 7.98735 17.3807L10.6846 15.1151C10.9673 14.8778 11.37 14.8659 11.6655 15.087L16.5304 18.7261C16.8653 18.977 17.3399 18.7879 17.4239 18.3708L20.9876 0.708226C21.0793 0.252701 20.6449 -0.127347 20.2239 0.0404266L0.365244 7.93374C-0.124811 8.12848 -0.120546 8.84336 0.370904 9.03315ZM6.78083 9.90338L16.2377 3.90214C16.4077 3.79459 16.5825 4.03137 16.4366 4.17088L8.63191 11.6459C8.3576 11.909 8.18061 12.2611 8.13049 12.6433L7.86463 14.6733C7.82944 14.9444 7.45989 14.9712 7.38729 14.7089L6.36481 11.0071C6.24771 10.5849 6.41838 10.1339 6.78083 9.90338Z" fill="#FCFCFC"/>
</svg>
