<svg width="44" height="44" viewBox="0 0 44 44" fill="none" xmlns="http://www.w3.org/2000/svg">
<g clip-path="url(#clip0_99_227)">
<path d="M0.0146484 6.875C0.0146484 6.51033 0.159418 6.16059 0.41711 5.90273C0.674803 5.64487 1.02431 5.5 1.38874 5.5H5.51101C5.81752 5.50008 6.1152 5.60271 6.35671 5.79157C6.59823 5.98042 6.76971 6.24466 6.84388 6.54225L7.9569 11H39.8633C40.072 11.0001 40.278 11.0477 40.4656 11.1393C40.6531 11.2309 40.8174 11.3641 40.9459 11.5287C41.0743 11.6933 41.1636 11.885 41.207 12.0893C41.2504 12.2936 41.2467 12.5051 41.1962 12.7077L37.0739 29.2078C36.9997 29.5053 36.8282 29.7696 36.5867 29.9584C36.3452 30.1473 36.0475 30.2499 35.741 30.25H11.0074C10.7009 30.2499 10.4032 30.1473 10.1617 29.9584C9.92016 29.7696 9.74868 29.5053 9.67451 29.2078L4.43922 8.25H1.38874C1.02431 8.25 0.674803 8.10513 0.41711 7.84727C0.159418 7.58941 0.0146484 7.23967 0.0146484 6.875ZM8.64394 13.75L10.018 19.25H13.7556V13.75H8.64394ZM16.5037 13.75V19.25H22.0001V13.75H16.5037ZM24.7483 13.75V19.25H30.2447V13.75H24.7483ZM32.9928 13.75V19.25H36.7304L38.1045 13.75H32.9928ZM36.0433 22H32.9928V27.5H34.6692L36.0433 22ZM30.2447 22H24.7483V27.5H30.2447V22ZM22.0001 22H16.5037V27.5H22.0001V22ZM13.7556 22H10.7051L12.0792 27.5H13.7556V22ZM13.7556 35.75C13.0267 35.75 12.3277 36.0397 11.8123 36.5555C11.2969 37.0712 11.0074 37.7707 11.0074 38.5C11.0074 39.2293 11.2969 39.9288 11.8123 40.4445C12.3277 40.9603 13.0267 41.25 13.7556 41.25C14.4844 41.25 15.1834 40.9603 15.6988 40.4445C16.2142 39.9288 16.5037 39.2293 16.5037 38.5C16.5037 37.7707 16.2142 37.0712 15.6988 36.5555C15.1834 36.0397 14.4844 35.75 13.7556 35.75ZM8.2592 38.5C8.2592 37.0413 8.83828 35.6424 9.86904 34.6109C10.8998 33.5795 12.2978 33 13.7556 33C15.2133 33 16.6113 33.5795 17.6421 34.6109C18.6728 35.6424 19.2519 37.0413 19.2519 38.5C19.2519 39.9587 18.6728 41.3576 17.6421 42.3891C16.6113 43.4205 15.2133 44 13.7556 44C12.2978 44 10.8998 43.4205 9.86904 42.3891C8.83828 41.3576 8.2592 39.9587 8.2592 38.5ZM32.9928 35.75C32.264 35.75 31.565 36.0397 31.0496 36.5555C30.5342 37.0712 30.2447 37.7707 30.2447 38.5C30.2447 39.2293 30.5342 39.9288 31.0496 40.4445C31.565 40.9603 32.264 41.25 32.9928 41.25C33.7217 41.25 34.4207 40.9603 34.9361 40.4445C35.4515 39.9288 35.741 39.2293 35.741 38.5C35.741 37.7707 35.4515 37.0712 34.9361 36.5555C34.4207 36.0397 33.7217 35.75 32.9928 35.75ZM27.4965 38.5C27.4965 37.0413 28.0756 35.6424 29.1063 34.6109C30.1371 33.5795 31.5351 33 32.9928 33C34.4506 33 35.8486 33.5795 36.8794 34.6109C37.9101 35.6424 38.4892 37.0413 38.4892 38.5C38.4892 39.9587 37.9101 41.3576 36.8794 42.3891C35.8486 43.4205 34.4506 44 32.9928 44C31.5351 44 30.1371 43.4205 29.1063 42.3891C28.0756 41.3576 27.4965 39.9587 27.4965 38.5Z" fill="#F0F0F0"/>
</g>
<defs>
<clipPath id="clip0_99_227">
<rect width="43.9709" height="44" fill="white" transform="translate(0.0146484)"/>
</clipPath>
</defs>
</svg>
