<svg width="44" height="44" viewBox="0 0 44 44" fill="none" xmlns="http://www.w3.org/2000/svg">
<g id="check-circle 1" clip-path="url(#clip0_99_259)">
<path id="Vector" d="M22.001 41.25C16.8956 41.25 11.9992 39.2219 8.38917 35.6118C4.7791 32.0017 2.75098 27.1054 2.75098 22C2.75098 16.8946 4.7791 11.9983 8.38917 8.38819C11.9992 4.77812 16.8956 2.75 22.001 2.75C27.1064 2.75 32.0027 4.77812 35.6128 8.38819C39.2229 11.9983 41.251 16.8946 41.251 22C41.251 27.1054 39.2229 32.0017 35.6128 35.6118C32.0027 39.2219 27.1064 41.25 22.001 41.25ZM22.001 44C27.8357 44 33.4315 41.6822 37.5573 37.5564C41.6831 33.4305 44.001 27.8348 44.001 22C44.001 16.1652 41.6831 10.5695 37.5573 6.44365C33.4315 2.31785 27.8357 0 22.001 0C16.1662 0 10.5704 2.31785 6.44463 6.44365C2.31883 10.5695 0.000976563 16.1652 0.000976562 22C0.000976563 27.8348 2.31883 33.4305 6.44463 37.5564C10.5704 41.6822 16.1662 44 22.001 44Z" fill="#F0F0F0"/>
<path id="Vector_2" d="M30.1689 13.6675C30.1493 13.6865 30.131 13.7067 30.1139 13.728L20.5632 25.8968L14.8074 20.1383C14.4164 19.774 13.8993 19.5756 13.365 19.5851C12.8307 19.5945 12.3208 19.8109 11.943 20.1888C11.5651 20.5667 11.3486 21.0765 11.3392 21.6109C11.3298 22.1452 11.5281 22.6623 11.8924 23.0533L19.1689 30.3325C19.3649 30.5282 19.5984 30.6824 19.8553 30.7859C20.1122 30.8894 20.3873 30.9401 20.6642 30.9349C20.9411 30.9298 21.2142 30.869 21.4671 30.756C21.72 30.6431 21.9475 30.4803 22.1362 30.2775L33.1142 16.555C33.488 16.1627 33.6924 15.639 33.6831 15.0972C33.6739 14.5553 33.4518 14.0389 33.0648 13.6595C32.6779 13.2802 32.1571 13.0683 31.6152 13.0698C31.0733 13.0713 30.5538 13.286 30.1689 13.6675Z" fill="#F0F0F0"/>
</g>
<defs>
<clipPath id="clip0_99_259">
<rect width="44" height="44" fill="white" transform="translate(0.000976562)"/>
</clipPath>
</defs>
</svg>
