<svg width="43" height="46" viewBox="0 0 43 46" fill="none" xmlns="http://www.w3.org/2000/svg">
<g clip-path="url(#clip0_99_240)">
<path fill-rule="evenodd" clip-rule="evenodd" d="M16.4856 10.0625C16.4856 9.68125 16.6238 9.31562 16.8697 9.04603C17.1157 8.77645 17.4493 8.625 17.7972 8.625H38.7833C39.1312 8.625 39.4648 8.77645 39.7108 9.04603C39.9568 9.31562 40.095 9.68125 40.095 10.0625V35.9375C40.095 36.3187 39.9568 36.6844 39.7108 36.954C39.4648 37.2236 39.1312 37.375 38.7833 37.375H17.7972C17.4493 37.375 17.1157 37.2236 16.8697 36.954C16.6238 36.6844 16.4856 36.3187 16.4856 35.9375V30.1875C16.4856 29.8063 16.3474 29.4406 16.1014 29.171C15.8554 28.9014 15.5218 28.75 15.1739 28.75C14.8261 28.75 14.4925 28.9014 14.2465 29.171C14.0005 29.4406 13.8623 29.8063 13.8623 30.1875V35.9375C13.8623 37.0812 14.2769 38.1781 15.0148 38.9869C15.7527 39.7957 16.7536 40.25 17.7972 40.25H38.7833C39.8269 40.25 40.8278 39.7957 41.5657 38.9869C42.3037 38.1781 42.7182 37.0812 42.7182 35.9375V10.0625C42.7182 8.91875 42.3037 7.82185 41.5657 7.0131C40.8278 6.20435 39.8269 5.75 38.7833 5.75H17.7972C16.7536 5.75 15.7527 6.20435 15.0148 7.0131C14.2769 7.82185 13.8623 8.91875 13.8623 10.0625V15.8125C13.8623 16.1937 14.0005 16.5594 14.2465 16.829C14.4925 17.0985 14.8261 17.25 15.1739 17.25C15.5218 17.25 15.8554 17.0985 16.1014 16.829C16.3474 16.5594 16.4856 16.1937 16.4856 15.8125V10.0625Z" fill="#F0F0F0"/>
<path fill-rule="evenodd" clip-rule="evenodd" d="M31.8421 24.0176C31.9642 23.8841 32.0611 23.7255 32.1272 23.5508C32.1934 23.3762 32.2274 23.1889 32.2274 22.9999C32.2274 22.8108 32.1934 22.6236 32.1272 22.4489C32.0611 22.2743 31.9642 22.1156 31.8421 21.9821L23.9723 13.3571C23.8503 13.2235 23.7055 13.1174 23.5462 13.0451C23.3869 12.9728 23.2161 12.9355 23.0436 12.9355C22.8712 12.9355 22.7004 12.9728 22.5411 13.0451C22.3817 13.1174 22.2369 13.2235 22.115 13.3571C21.993 13.4908 21.8963 13.6494 21.8303 13.8241C21.7643 13.9987 21.7303 14.1858 21.7303 14.3749C21.7303 14.5639 21.7643 14.751 21.8303 14.9257C21.8963 15.1003 21.993 15.259 22.115 15.3926L27.7471 21.5624H4.68077C4.33291 21.5624 3.99929 21.7138 3.75331 21.9834C3.50733 22.253 3.36914 22.6186 3.36914 22.9999C3.36914 23.3811 3.50733 23.7467 3.75331 24.0163C3.99929 24.2859 4.33291 24.4374 4.68077 24.4374H27.7471L22.115 30.6071C21.993 30.7408 21.8963 30.8994 21.8303 31.0741C21.7643 31.2487 21.7303 31.4359 21.7303 31.6249C21.7303 31.8139 21.7643 32.001 21.8303 32.1757C21.8963 32.3503 21.993 32.509 22.115 32.6426C22.2369 32.7763 22.3817 32.8823 22.5411 32.9546C22.7004 33.027 22.8712 33.0642 23.0436 33.0642C23.2161 33.0642 23.3869 33.027 23.5462 32.9546C23.7055 32.8823 23.8503 32.7763 23.9723 32.6426L31.8421 24.0176Z" fill="#F0F0F0"/>
</g>
<defs>
<clipPath id="clip0_99_240">
<rect width="41.9722" height="46" fill="white" transform="translate(0.746094)"/>
</clipPath>
</defs>
</svg>
