<svg width="45" height="36" viewBox="0 0 45 36" fill="none" xmlns="http://www.w3.org/2000/svg">
<path id="Vector" d="M0.158203 5.76C0.158203 5.76 0.158203 0 5.6582 0H38.6582C38.6582 0 44.1582 0 44.1582 5.76V23.04C44.1582 23.04 44.1582 28.8 38.6582 28.8H27.6582C27.6582 30.721 27.8865 32.161 28.3457 33.12H30.4082C30.7729 33.12 31.1226 33.2717 31.3805 33.5418C31.6383 33.8118 31.7832 34.1781 31.7832 34.56C31.7832 34.9419 31.6383 35.3082 31.3805 35.5782C31.1226 35.8483 30.7729 36 30.4082 36H13.9082C13.5435 36 13.1938 35.8483 12.9359 35.5782C12.6781 35.3082 12.5332 34.9419 12.5332 34.56C12.5332 34.1781 12.6781 33.8118 12.9359 33.5418C13.1938 33.2717 13.5435 33.12 13.9082 33.12H15.9707C16.43 32.161 16.6582 30.721 16.6582 28.8H5.6582C5.6582 28.8 0.158203 28.8 0.158203 23.04V5.76ZM4.0027 3.2976C3.70063 3.51785 3.45963 3.81794 3.3042 4.16736C3.06979 4.67459 2.93512 5.22599 2.9082 5.7888V23.04C2.9082 23.976 3.1227 24.4858 3.30695 24.7738C3.49945 25.0762 3.77445 25.3152 4.13745 25.5053C4.60093 25.7404 5.10317 25.8802 5.61695 25.9171L5.6857 25.92H38.6582C39.552 25.92 40.0387 25.6954 40.3137 25.5024C40.6158 25.2821 40.8568 24.9821 41.0122 24.6326C41.2367 24.1473 41.3702 23.6213 41.4055 23.0832L41.4082 23.0112V5.76C41.4082 4.824 41.1937 4.31424 41.0095 4.02624C40.7992 3.70979 40.5127 3.45738 40.179 3.29472C39.6946 3.04923 39.1681 2.90819 38.6307 2.88H5.6582C4.76445 2.88 4.2777 3.10464 4.0027 3.2976Z" fill="#F0F0F0"/>
</svg>
